{"accessors" : [{"bufferView" : 0, "byteOffset" : 0, "componentType" : 5123, "count" : 2868, "type" : "SCALAR", "max" : [2867], "min" : [0]}, {"bufferView" : 1, "byteOffset" : 0, "componentType" : 5126, "count" : 2868, "type" : "VEC3", "max" : [0.29722291231155396, 0.935232400894165, 0.941093385219574], "min" : [-0.29722291231155396, -1.0970940589904785, -0.23297330737113953], "name" : "POSITION"}, {"bufferView" : 1, "byteOffset" : 12, "componentType" : 5126, "count" : 2868, "type" : "VEC3", "max" : [0.9997833967208862, 0.9992666840553284, 0.9999908208847046], "min" : [-0.9997833967208862, -0.9996880888938904, -0.9999822974205017], "name" : "NORMAL"}, {"bufferView" : 1, "byteOffset" : 24, "componentType" : 5126, "count" : 2868, "type" : "VEC2", "max" : [1, -0], "min" : [0, -0.9471313953399658], "name" : "TEXCOORD_0"}], "asset" : {"generator" : "Aspose.3D 22.1", "version" : "2.0"}, "buffers" : [{"uri" : "data:application/octet-stream;base64,", "byteLength" : 97520}], "bufferViews" : [{"buffer" : 0, "byteOffset" : 0, "byteLength" : 5736, "target" : 34963}, {"buffer" : 0, "byteOffset" : 5740, "byteLength" : 91776, "byteStride" : 32, "target" : 34962}], "cameras" : [{"perspective" : {"aspectRatio" : 1.777778, "yfov" : 0.6911111138815845, "zfar" : 100, "znear" : 0.1}, "type" : "perspective", "name" : "Camera"}], "meshes" : [{"primitives" : [{"attributes" : {"POSITION" : 1, "NORMAL" : 2, "TEXCOORD_0" : 3}, "indices" : 0, "mode" : 4}], "name" : ""}], "nodes" : [{"mesh" : 0, "name" : "Bear"}, {"children" : [0], "name" : "Armature"}, {"camera" : 0, "matrix" : [0.6859207, 0.7276763, 0, 0, -0.3240135, 0.3054208, 0.8953956, 0, 0.6515582, -0.6141704, 0.4452714, 0, 7.358891, -6.925791, 4.958309, 1], "name" : "Camera"}], "scene" : 0, "scenes" : [{"nodes" : [1, 2]}]}