{"accessors" : [{"bufferView" : 0, "byteOffset" : 0, "componentType" : 5123, "count" : 336, "type" : "SCALAR", "max" : [277], "min" : [0]}, {"bufferView" : 1, "byteOffset" : 0, "componentType" : 5126, "count" : 278, "type" : "VEC3", "max" : [0.410053014755249, 1.4523450136184692, 0.7875040173530579], "min" : [-0.410053014755249, -0.002322999993339181, 0.007973999716341496], "name" : "POSITION"}, {"bufferView" : 1, "byteOffset" : 12, "componentType" : 5126, "count" : 278, "type" : "VEC2", "max" : [0.875, -0], "min" : [0.125, -1], "name" : "TEXCOORD_0"}, {"bufferView" : 1, "byteOffset" : 20, "componentType" : 5126, "count" : 278, "type" : "VEC3", "max" : [1.0000044107437134, 0.965933084487915, 0.965933084487915], "min" : [-1.0000044107437134, -0.965933084487915, -0.965933084487915], "name" : "NORMAL"}], "asset" : {"generator" : "Aspose.3D 22.1", "version" : "2.0"}, "buffers" : [{"uri" : "data:application/octet-stream;base64,", "byteLength" : 11432}], "bufferViews" : [{"buffer" : 0, "byteOffset" : 0, "byteLength" : 672, "target" : 34963}, {"buffer" : 0, "byteOffset" : 676, "byteLength" : 10752, "byteStride" : 32, "target" : 34962}], "meshes" : [{"primitives" : [{"attributes" : {"POSITION" : 1, "TEXCOORD_0" : 2, "NORMAL" : 3}, "indices" : 0, "mode" : 4}], "name" : ""}], "nodes" : [{"mesh" : 0, "name" : "Cube"}], "scene" : 0, "scenes" : [{"nodes" : [0]}]}